<?xml version="1.0" encoding="UTF-8" standalone="no"?>
<!-- Created with Inkscape (http://www.inkscape.org/) -->

<svg
   xmlns:dc="http://purl.org/dc/elements/1.1/"
   xmlns:cc="http://creativecommons.org/ns#"
   xmlns:rdf="http://www.w3.org/1999/02/22-rdf-syntax-ns#"
   xmlns:svg="http://www.w3.org/2000/svg"
   xmlns="http://www.w3.org/2000/svg"
   xmlns:xlink="http://www.w3.org/1999/xlink"
   xmlns:sodipodi="http://sodipodi.sourceforge.net/DTD/sodipodi-0.dtd"
   xmlns:inkscape="http://www.inkscape.org/namespaces/inkscape"
   id="svg2"
   xml:space="preserve"
   viewBox="0 0 37.35 37.35"
   version="1.1"
   inkscape:version="0.48.5 r10040"
   width="100%"
   height="100%"
   sodipodi:docname="bubble.svg"><sodipodi:namedview
     pagecolor="#ffffff"
     bordercolor="#666666"
     borderopacity="1"
     objecttolerance="10"
     gridtolerance="10"
     guidetolerance="10"
     inkscape:pageopacity="0"
     inkscape:pageshadow="2"
     inkscape:window-width="1301"
     inkscape:window-height="744"
     id="namedview3155"
     showgrid="false"
     inkscape:zoom="15.983936"
     inkscape:cx="7.6639447"
     inkscape:cy="18.675"
     inkscape:window-x="65"
     inkscape:window-y="24"
     inkscape:window-maximized="1"
     inkscape:current-layer="svg2" /><defs
     id="defs6"><radialGradient
       id="radialGradient24"
       gradientUnits="userSpaceOnUse"
       cy=".1416"
       cx="25.81"
       gradientTransform="matrix(0.56568,-0.56568,0.56568,0.56568,-0.16016,29.72)"
       r="15.38"><stop
         id="stop26"
         style="stop-color:#e8f4f7"
         offset="0" /><stop
         id="stop28"
         style="stop-color:#e6f3f6"
         offset=".46270" /><stop
         id="stop30"
         style="stop-color:#deeff3"
         offset=".7137" /><stop
         id="stop32"
         style="stop-color:#d0e8ee"
         offset=".90980" /><stop
         id="stop34"
         style="stop-color:#c7e4eb"
         offset="1" /></radialGradient><clipPath
       id="clipPath42"><path
         id="path44"
         d="m0-0.12h30v30h-30v-30z"
         inkscape:connector-curvature="0" /></clipPath><mask
       id="mask46"><g
         id="g48"><g
           id="g50"
           clip-path="url(#clipPath42)"><path
             id="path52"
             style="fill:#000000;fill-opacity:.67190"
             d="m0-0.12h30v30h-30v-30z"
             inkscape:connector-curvature="0" /></g></g></mask><clipPath
       id="clipPath58"><path
         id="path60"
         d="m0-0.12h30v30h-30v-30z"
         inkscape:connector-curvature="0" /></clipPath><clipPath
       id="clipPath62"><path
         id="path64"
         d="m0 0h30v30h-30v-30z"
         inkscape:connector-curvature="0" /></clipPath><clipPath
       id="clipPath92"><path
         id="path94"
         d="m4 1.88h24v15h-24v-15z"
         inkscape:connector-curvature="0" /></clipPath><mask
       id="mask96"><g
         id="g98"><g
           id="g100"
           clip-path="url(#clipPath92)"><path
             id="path102"
             style="fill:#000000;fill-opacity:.33980"
             d="m4 1.88h24v15h-24v-15z"
             inkscape:connector-curvature="0" /></g></g></mask><clipPath
       id="clipPath108"><path
         id="path110"
         d="m4 1.88h24v15h-24v-15z"
         inkscape:connector-curvature="0" /></clipPath><clipPath
       id="clipPath112"><path
         id="path114"
         d="m4 2h24v15h-24v-15z"
         inkscape:connector-curvature="0" /></clipPath><radialGradient
       inkscape:collect="always"
       xlink:href="#radialGradient24"
       id="radialGradient3183"
       gradientUnits="userSpaceOnUse"
       gradientTransform="matrix(0.56568,-0.56568,0.56568,0.56568,-0.16016,29.72)"
       cx="25.81"
       cy=".1416"
       r="15.38" /><radialGradient
       inkscape:collect="always"
       xlink:href="#radialGradient24"
       id="radialGradient3210"
       gradientUnits="userSpaceOnUse"
       gradientTransform="matrix(0.56568,-0.56568,0.56568,0.56568,-0.16016,29.72)"
       cx="25.81"
       cy=".1416"
       r="15.38" /></defs><g
     id="g16"
     transform="matrix(1.25,0,0,-1.25,0,37.35)"
     style="opacity:0.09053498"><g
       id="g22"><path
         inkscape:connector-curvature="0"
         d="M 29.68,14.919 C 29.68,10.868 28.238,7.4 25.359,4.521 22.48,1.642 19,0.2 14.922,0.2 10.867,0.2 7.398,1.642 4.52,4.521 1.641,7.4 0.199,10.868 0.199,14.919 c 0,4.082 1.442,7.559 4.321,10.441 2.878,2.879 6.347,4.321 10.402,4.321 4.078,0 7.558,-1.442 10.437,-4.321 2.879,-2.878 4.321,-6.359 4.321,-10.441 z"
         style="fill:url(#radialGradient3210);fill-rule:evenodd"
         id="path36" /></g></g><g
     id="g38"
     transform="matrix(1.25,0,0,-1.25,0,37.35)"><g
       id="g54"
       mask="url(#mask46)"><g
         id="g66"><g
           id="g68"
           clip-path="url(#clipPath58)"><g
             id="g70"
             transform="translate(0,-0.12)"><g
               id="g74"><g
                 id="g76"
                 clip-path="url(#clipPath62)"><g
                   id="g78"><g
                     id="g80"
                     transform="translate(0,30)"><path
                       id="path82"
                       style="fill:none;stroke:#ffffff;stroke-width:0.40000001"
                       d="m 29.68,-14.961 c 0,-4.051 -1.442,-7.519 -4.321,-10.398 C 22.48,-28.238 19,-29.68 14.922,-29.68 c -4.055,0 -7.524,1.442 -10.402,4.321 -2.879,2.879 -4.321,6.347 -4.321,10.398 0,4.082 1.442,7.563 4.321,10.441 2.878,2.879 6.347,4.321 10.402,4.321 4.078,0 7.558,-1.442 10.437,-4.321 2.879,-2.878 4.321,-6.359 4.321,-10.441 z"
                       inkscape:connector-curvature="0" /></g></g></g></g></g></g></g></g></g><path
     id="path84"
     style="fill:#ffffff;fill-rule:evenodd"
     d="M 9.0475,6.9 C 11.51875,6.9675 11.83625,8.15 10,10.44875 8.06625,12.88125 6.73375,13.70125 6.00125,12.9 5.3325,12.2025 5.38125,11.035 6.1525,9.4 6.91875,7.7 7.88125,6.865 9.0475,6.9 z"
     inkscape:connector-curvature="0" /><path
     id="path86"
     style="fill:#ffffff;fill-rule:evenodd"
     d="m 5.04875,14.7025 c 0.635,0.13125 0.835,0.595 0.60125,1.39625 C 5.415,16.93375 5.06875,17.2025 4.6,16.9 4.19875,16.60125 4.0675,16.1325 4.19875,15.4975 c 0.16625,-0.595 0.45,-0.86375 0.85,-0.795 z"
     inkscape:connector-curvature="0" /><g
     id="g88"
     transform="matrix(1.25,0,0,-1.25,0,37.35)"><g
       id="g104"
       mask="url(#mask96)"><g
         id="g116"><g
           id="g118"
           clip-path="url(#clipPath108)"><g
             id="g120"
             transform="translate(0,-0.12)"><g
               id="g124"><g
                 id="g126"
                 clip-path="url(#clipPath112)"><g
                   id="g128"><path
                     id="path130"
                     style="fill:#ffffff;fill-rule:evenodd"
                     d="M 27.68,16.922 C 27.945,15.398 27.785,13.695 27.199,11.801 26.055,8.039 23.375,5.266 19.16,3.48 15.988,2.145 12.586,2.254 8.961,3.801 7.316,4.527 5.938,5.344 4.82,6.262 5.652,5.625 6.777,5.082 8.199,4.641 c 3.227,-0.989 6.75,-0.786 10.563,0.597 3.437,1.227 5.957,3.551 7.558,6.961 0.801,1.68 1.254,3.254 1.36,4.723 z"
                     inkscape:connector-curvature="0" /></g></g></g></g></g></g></g></g><metadata
     id="metadata3153"><rdf:RDF><cc:Work><dc:format>image/svg+xml</dc:format><dc:type
           rdf:resource="http://purl.org/dc/dcmitype/StillImage" /><cc:license
           rdf:resource="http://creativecommons.org/licenses/publicdomain/" /><dc:publisher><cc:Agent
             rdf:about="http://openclipart.org/"><dc:title>Openclipart</dc:title></cc:Agent></dc:publisher></cc:Work><cc:License
         rdf:about="http://creativecommons.org/licenses/publicdomain/"><cc:permits
           rdf:resource="http://creativecommons.org/ns#Reproduction" /><cc:permits
           rdf:resource="http://creativecommons.org/ns#Distribution" /><cc:permits
           rdf:resource="http://creativecommons.org/ns#DerivativeWorks" /></cc:License></rdf:RDF></metadata></svg>